<?xml version="1.0" encoding="utf-8"?>
<!-- Generator: Adobe Illustrator 22.0.0, SVG Export Plug-In . SVG Version: 6.00 Build 0)  -->
<svg version="1.1" id="Lager_1" xmlns="http://www.w3.org/2000/svg" xmlns:xlink="http://www.w3.org/1999/xlink" x="0px" y="0px"
	 viewBox="0 0 2142.3 374.1" style="enable-background:new 0 0 2142.3 374.1;" xml:space="preserve">
<style type="text/css">
	.st0{display:none;}
	.st1{display:inline;fill:#070505;}
	.st2{font-family:'Nilland-Bold';}
	.st3{font-size:527.6593px;}
	.st4{font-family:'Nilland-Black';}
	.st5{fill:#070505;}
	.st6{display:none;fill:#070505;}
</style>
<text transform="matrix(1 0 0 1 -114.7744 362.502)" class="st0"><tspan x="0" y="0" class="st1 st2 st3">dream</tspan><tspan x="1428.9" y="0" class="st1 st4 st3"> </tspan><tspan x="1540.7" y="0" class="st1 st2 st3">do</tspan></text>
<g>
	<path class="st5" d="M256.3,366.7H220v-41.2c-11.3,14.4-23.9,25.2-38,32.2c-16.9,8.4-35,12.7-54.3,12.7c-36.6,0-67-12.7-91.3-38
		C12.1,307.1,0,275.6,0,238c0-39.4,12-71.8,35.9-97.1c23.9-26,54-39,90.2-39c19,0,37.3,4.4,54.9,13.2c14.1,7.4,27.1,19.2,39,35.4V28
		V0h35.9v334.5L256.3,366.7z M193.1,162.5C175.2,142.8,153,133,126.6,133c-26,0-48,10-66,30.1c-17.6,20.4-26.4,45.4-26.4,74.9
		c0,28.1,9,52.2,26.9,72.3c18.3,19.4,40.4,29,66.5,29c27.4,0,49.8-9.7,67-29c17.2-19.3,25.9-44,25.9-73.9
		C220.6,206.8,211.4,182.2,193.1,162.5z"/>
	<path class="st5" d="M477,136.7c-34.8,0-60.5,7.2-77,21.6c-16.2,14.4-24.3,37.3-24.3,68.6v107.6h51.2v32.2h-87.1v-28V140.9h-47.5
		v-32.2h83.4V143c3.2-4.6,7-9.3,11.6-14.2c4.6-4.9,9.7-9,15.3-12.1c4.9-2.5,10.5-4.7,16.6-6.9c6.2-2.1,12.6-3.8,19.3-5
		c6.7-1.2,13.4-2.2,20.1-2.9c6.7-0.7,12.8-0.9,18.5-0.5l14.2,0.5v34.8H477z"/>
	<path class="st5" d="M518.2,248c2.1,26.7,11.6,48.5,28.5,65.4c19,20.1,43.3,30.1,72.8,30.1c4.9,0,10.9-0.8,17.9-2.4
		c7-1.6,13.9-3.4,20.6-5.5c6.7-2.1,12.6-4.1,17.7-6.1c5.1-1.9,8.2-3.2,9.2-4l8.4,28.5c-11.3,4.2-20.8,7.6-28.8,10
		s-16.4,4.7-25.6,6.9c-9.2,2.1-17.1,3.2-23.7,3.2c-38.3,0-70.2-12.8-95.5-38.5c-25-26-37.5-58.6-37.5-97.6
		c0-39.4,12.3-71.9,36.9-97.6c24.6-25.7,56.1-38.5,94.5-38.5c37.6,0,68.1,12.7,91.3,38c11.6,12.3,20.6,27.4,26.9,45.1
		c6.3,17.8,10,38.8,11.1,63.1H518.2z M675.4,157.8c-16.2-16.2-37.5-24.3-63.8-24.3c-27.1,0-49.6,9.9-67.5,29.5
		c-6.3,7-11.5,15-15.6,23.7c-4,8.8-7.1,18.5-9.2,29H705C700.7,191.9,690.9,172.5,675.4,157.8z"/>
	<path class="st5" d="M912.9,366.7v-30.6c-12.7,10.2-25.5,17.9-38.5,23.2c-16.5,7.4-32.4,11.1-47.5,11.1c-23.6,0-43.1-7.7-58.6-23.2
		c-15.5-15.5-23.2-33.8-23.2-54.9c0-23.2,9-42.7,26.9-58.6c17.6-15.1,41.2-22.7,70.7-22.7c10.6,0,22.5,1.6,35.9,4.7
		c5.6,1.4,11.3,3.3,16.9,5.5c5.6,2.3,11.4,4.8,17.4,7.7v-52.2c0-16.9-5.5-28.8-16.4-35.9c-11.3-7.4-26.6-11.1-45.9-11.1
		c-5.3,0-11.1,0.6-17.4,1.8c-6.3,1.2-12.4,2.6-18.2,4.2s-10.8,3.2-15,4.7c-4.2,1.6-6.9,2.6-7.9,2.9l-9.5-23.7
		c9.1-3.9,17.2-6.9,24.3-9c7-2.1,14.5-4.1,22.4-6.1c7.9-1.9,15.4-2.9,22.4-2.9c31.3,0,55.2,6.2,71.8,18.5
		c16.9,12.3,25.3,31.1,25.3,56.5v157.8h41.7v32.2H912.9z M912.9,260.1c-9.5-5.6-19.5-10.2-30.1-13.7c-11.3-4.2-23-6.3-35.4-6.3
		c-21.1,0-37.5,5.3-49.1,15.8c-11.3,10.6-16.9,23.4-16.9,38.5c0,11.6,4.6,22.3,13.7,32.2c8.8,9.5,21.5,14.2,38,14.2
		c13.7,0,28.1-3.9,43.3-11.6c14.8-7.4,26.9-16.4,36.4-26.9V260.1z"/>
	<path class="st5" d="M1062.9,366.7c-12,0-24,0-36,0v-28V140.9h-45.4v-32.2h81.3v28.5c12-9.8,24.4-17.8,37.5-23.7
		c15.8-7.7,32.7-11.6,50.7-11.6c17.2,0,31.5,3.9,42.7,11.6c9.8,6.3,17.6,16.2,23.2,29.5c4.9-4.9,10.7-9.5,17.4-13.7
		c6.7-4.2,14.1-8.4,22.2-12.7c18.6-9.8,36.6-14.8,53.8-14.8c21.5,0,39,6.3,52.8,19c13,12.7,19.5,29.5,19.5,50.7v163h39v32.2h-74.9
		v-28V174.7c0-12.3-3.1-22-9.2-29c-6.2-7-15.6-10.6-28.2-10.6c-14.8,0-29.5,4-44.3,12.1c-7.7,3.9-15,8.4-21.9,13.5
		c-6.9,5.1-13.6,10.8-20.3,17.1v188.9h-35.9V174.7c0-13.4-3.2-23.2-9.5-29.5c-6-6.7-15.5-10-28.5-10c-12.7,0-27.4,4-44.3,12.1
		c-15.5,7.7-29.4,17.2-41.7,28.5c0,52.9,0,105.9,0,158.8C1062.8,345.3,1062.8,356,1062.9,366.7z"/>
	<path class="st5" d="M1806.2,366.7v-41.2c-11.3,14.4-23.9,25.2-38,32.2c-16.9,8.4-35,12.7-54.3,12.7c-36.6,0-67-12.7-91.3-38
		c-24.3-25.3-36.4-56.8-36.4-94.5c0-39.4,12-71.8,35.9-97.1c23.9-26,54-39,90.2-39c19,0,37.3,4.4,54.9,13.2
		c14.1,7.4,27.1,19.2,39,35.4V28V0h35.9v334.5l0.4,32.2H1806.2z M1779.3,162.5c-17.9-19.7-40.1-29.5-66.5-29.5c-26,0-48,10-66,30.1
		c-17.6,20.4-26.4,45.4-26.4,74.9c0,28.1,9,52.2,26.9,72.3c18.3,19.4,40.4,29,66.5,29c27.4,0,49.8-9.7,67-29
		c17.2-19.3,25.9-44,25.9-73.9C1806.7,206.8,1797.6,182.2,1779.3,162.5z"/>
	<path class="st5" d="M2105.4,334.5c-24.3,26.4-54.9,39.6-91.8,39.6c-36.9,0-67.5-13.2-91.8-39.6c-24.6-25.7-36.9-57.9-36.9-96.6
		c0-38.7,12.3-70.9,36.9-96.6c24.3-26.4,54.9-39.6,91.8-39.6c36.9,0,67.5,13.2,91.8,39.6c24.6,25.7,36.9,57.9,36.9,96.6
		C2142.3,276.7,2130,308.9,2105.4,334.5z M2080,164.1c-17.2-19.3-39.4-29-66.5-29c-27.1,0-49.3,9.7-66.5,29
		c-17.2,19.4-25.9,44-25.9,73.9c0,29.9,8.6,54.5,25.9,73.9c17.2,19.4,39.4,29,66.5,29c27.1,0,49.2-9.7,66.5-29
		c17.2-19.3,25.9-44,25.9-73.9C2105.9,208.1,2097.3,183.5,2080,164.1z"/>
</g>
<path class="st0" d="M53.7,246.4c0-130.5,157.2-115.1,157.2-115.1s-25.6-9.2-38.9-11c-8-1.1-14.8-1.3-19.9-1.3
	c-9.4,0-31.8,0.1-56.9,10.6c-20.9,8.7-33.6,20.3-39.8,26c-5.2,4.8-12.1,12.1-18.5,21.4c-19.8,29.2-20,58.5-19.9,69.5
	c0.1,11.1,0.6,34.2,15.3,59.4c8,13.7,17.6,23.5,23.8,29.1c16.3,14.8,32.7,22.1,37.4,24.1c26.6,11.4,50.5,11.5,60.4,11.5
	c8.8,0,21.8-0.8,36.9-4.5c13.6-3.3,21.4-7.3,21.4-7.3S53.7,376.9,53.7,246.4z"/>
<path class="st6" d="M220,150.4V28V0h35.9v334.5l0.4,32.2H220v-41.2"/>
<circle class="st5" cx="1503" cy="185" r="28"/>
<g>
	<path class="st5" d="M1503,278c9.4,0,17,7.6,17,17s-7.6,17-17,17s-17-7.6-17-17S1493.6,278,1503,278 M1503,267
		c-15.5,0-28,12.5-28,28s12.5,28,28,28s28-12.5,28-28S1518.5,267,1503,267L1503,267z"/>
</g>
</svg>
