<svg xmlns="http://www.w3.org/2000/svg" viewBox="0 0 1752.4 369.9"><defs><style>.a{fill:#fff;}</style></defs><title>Logo-Draft2-W</title><path class="a" d="M580.9,152.9q17.85,17.85,17.8,43.1t-17.8,43.1c-11.9,12-26.2,17.9-43.1,17.9a59.18,59.18,0,0,1-43.3-17.8q-17.85-17.85-17.8-43.1T494.5,153a59.34,59.34,0,0,1,43.3-17.8c16.9-.1,31.2,5.9,43.1,17.7Zm17.8,128.9v15.4h42.8V0H598.7V110.3c-15.2-12.5-35.5-18.5-61-18.2q-42.9,0-73.4,30.7-30.45,30.45-30.5,73.3t30.5,73.3c20.3,20.4,44.8,30.7,73.4,30.7,28.8-.1,49.2-6.2,61-18.3ZM799.4,152.9q17.85,17.85,17.8,43.1t-17.8,43.1a59.34,59.34,0,0,1-43.3,17.8q-25.35,0-43.1-17.8T695.2,196q0-25.35,17.8-43.1,18-18,43.1-18,25.35,0,43.3,18Zm17.8,128.9v15.4H860V94.6l-42.8,16v-.4q-18-18-61.1-18-42.75,0-73.3,30.5c-20.4,20.3-30.5,44.8-30.5,73.4s10.2,52.9,30.5,73.3,44.7,30.5,73.3,30.5,49.1-6.1,61.1-18.1Zm73.1,27.6a17.21,17.21,0,0,1-5.1,12.5c-3.4,3.3-10,5-19.8,5v43c21.4,0,38.1-5.9,49.9-17.6s17.7-25.8,17.8-42.4V94.6H890.3V309.4Zm206.6-156.5q17.85,17.85,17.8,43.1t-17.8,43.1a59.34,59.34,0,0,1-43.3,17.8q-25.35,0-43.1-17.8A59.12,59.12,0,0,1,992.7,196q0-25.35,17.8-43.1,18-18,43.1-18c16.8,0,31.3,6,43.3,18Zm17.8,128.9v15.4h42.8V188.6c0-14.3-8.7-43.1-18.8-56-9-11.6-12.7-15.2-23-22.4s-33.4-18-62.1-18q-42.75,0-73.3,30.5c-20.4,20.3-30.5,44.8-30.5,73.4S960,249,980.3,269.4s44.7,30.5,73.3,30.5,49.1-6.1,61.1-18.1Zm73.1,15.4h43V.4h-43Zm68.7-82.2c0,23.3,8.3,43.2,25,59.9s36.6,25,59.8,25c16.2-.1,30.2-3.7,42.1-10.8v8.3h42.8V94.6h-42.8V215a42.05,42.05,0,1,1-84.1.1V94.6h-42.8Zm495.9-38c0-23.4-8.3-43.3-24.8-59.9-16.7-16.6-36.6-25-59.9-25a84.93,84.93,0,0,0-63.3,28.3c-9.3-9.1-17.2-15.2-23.7-18.4a84.6,84.6,0,0,0-81.5,1.1v.4l-42.8-9V297.2h42.8V177a41.85,41.85,0,1,1,83.7-.5V297.4h42.8V176.8a42,42,0,0,1,83.9.1V297.2h42.8V177Z"/><path class="a" d="M4.2,254.9v43H381.1v-43Zm100-49v43H381.1v-43Z"/><path class="a" d="M105,82.1q25.65,0,43.6,18t18,43.6a60.1,60.1,0,0,1-18,43.8q-18,18-43.6,18t-43.6-18q-18.15-18.15-18.2-43.8c0-16.9,6.1-31.5,18.2-43.6a59.49,59.49,0,0,1,43.6-18Zm0,166.6q43.2,0,74-30.8c20.5-20.5,30.8-45.3,30.8-74.2s-10.3-53.5-30.8-74-45.2-30.8-74-30.8S51.3,49.2,30.8,69.7,0,114.9,0,143.7s10.3,53.7,30.8,74.2,45.3,30.8,74.2,30.8Z"/></svg>